<?xml version="1.0" standalone="no"?>
<!DOCTYPE svg PUBLIC "-//W3C//DTD SVG 20010904//EN"
 "http://www.w3.org/TR/2001/REC-SVG-20010904/DTD/svg10.dtd">
<svg version="1.0" xmlns="http://www.w3.org/2000/svg"
 width="700.000000pt" height="700.000000pt" viewBox="0 0 700.000000 700.000000"
 preserveAspectRatio="xMidYMid meet">
<metadata>
Created by potrace 1.11, written by Peter Selinger 2001-2013
</metadata>
<g transform="translate(0.000000,700.000000) scale(0.100000,-0.100000)"
fill="#000000" stroke="none">
<path d="M3183 6983 c-152 -22 -235 -43 -1038 -268 -209 -59 -387 -108 -395
-110 -19 -4 -205 -56 -630 -177 -173 -50 -322 -92 -330 -94 -8 -2 -96 -27
-195 -55 -99 -28 -191 -55 -205 -58 -28 -8 -31 -25 -19 -101 4 -25 17 -108 29
-185 12 -77 28 -180 35 -230 8 -49 28 -182 45 -295 17 -113 33 -216 35 -230
15 -100 47 -311 51 -340 3 -19 11 -75 19 -125 7 -49 16 -108 20 -130 3 -22 7
-51 10 -65 5 -33 27 -179 30 -205 2 -11 8 -49 14 -85 5 -36 13 -85 16 -110 3
-25 8 -52 10 -60 2 -8 7 -42 10 -75 4 -32 8 -62 10 -65 1 -3 6 -32 10 -65 3
-32 8 -62 10 -65 1 -3 6 -27 9 -55 9 -62 19 -132 46 -310 12 -77 23 -151 25
-165 54 -388 91 -547 175 -760 50 -124 90 -205 158 -315 139 -227 231 -329
572 -635 113 -101 225 -203 250 -226 25 -23 97 -88 160 -144 63 -57 153 -138
200 -180 47 -42 162 -146 255 -230 94 -84 211 -190 260 -235 50 -45 117 -106
150 -136 51 -45 221 -199 259 -234 6 -5 50 -45 98 -88 l87 -79 109 93 c60 52
107 98 105 104 -3 5 -46 43 -96 82 -475 374 -935 952 -1276 1601 -23 43 -3 21
49 -54 162 -234 350 -455 600 -704 270 -269 531 -479 824 -663 l125 -79 168
145 c92 79 258 222 368 317 110 94 214 184 230 199 17 14 77 67 135 116 58 50
110 95 116 100 6 6 37 33 69 60 474 405 579 504 697 657 75 96 178 247 178
259 0 5 -48 9 -107 10 -149 1 -385 13 -468 24 -16 2 -52 7 -80 10 -240 28
-555 97 -790 174 -82 27 -85 29 -40 25 28 -3 61 -7 75 -10 153 -25 612 -25
780 1 19 3 67 10 105 16 39 6 120 22 180 36 61 14 117 26 125 28 26 5 342 112
382 129 29 12 39 24 47 53 15 54 46 211 66 333 10 58 19 114 21 125 3 11 7 36
10 55 2 19 7 46 10 60 11 58 13 69 18 106 6 34 33 193 51 289 3 17 8 46 11 65
3 19 7 42 9 50 2 8 7 35 10 60 3 25 12 79 20 120 8 41 17 93 20 115 3 22 8 47
10 55 3 8 7 31 9 50 3 20 7 47 10 60 3 14 8 41 11 60 2 19 7 49 10 65 3 17 12
66 20 110 8 44 17 94 19 110 11 66 37 212 41 235 3 13 7 40 10 60 3 20 8 47
10 60 3 14 8 41 11 60 3 19 7 49 10 65 3 17 7 37 9 45 2 8 6 33 10 55 3 22 12
76 20 120 8 44 17 98 20 120 4 22 8 47 11 56 2 9 7 34 9 55 3 22 7 50 10 64 9
41 15 73 20 100 7 40 36 213 40 240 2 14 10 57 17 95 7 39 13 78 13 89 0 19
-10 23 -340 121 -44 13 -237 71 -430 130 -192 58 -534 162 -760 230 -225 68
-462 139 -525 158 -437 133 -555 167 -565 163 -24 -9 -153 -254 -216 -414 -99
-246 -160 -497 -194 -787 -17 -153 -13 -609 7 -743 8 -51 11 -89 8 -85 -24 29
-145 498 -174 678 -33 197 -40 248 -51 370 -28 296 -27 722 1 1003 l4 43 -64
-3 c-36 -1 -104 -8 -153 -15z"/>
</g>
</svg>
